<svg width="26" height="26" viewBox="0 0 26 26" fill="none" xmlns="http://www.w3.org/2000/svg">
	<g clip-path="url(#clip0_39_453)">
		<path
			d="M18.7283 7.48853C17.2018 6.05923 15.2209 5.27573 13.1193 5.27759C9.33716 5.28091 6.07202 7.87417 5.17051 11.4714C5.10488 11.7333 4.87158 11.9182 4.60161 11.9182H1.80361C1.4375 11.9182 1.15937 11.5858 1.2271 11.226C2.28359 5.61567 7.20938 1.37134 13.1267 1.37134C16.3712 1.37134 19.3177 2.64751 21.4917 4.7251L23.2356 2.9812C23.9738 2.24297 25.2361 2.76582 25.2361 3.80986V10.3557C25.2361 11.0029 24.7114 11.5276 24.0642 11.5276H17.5184C16.4743 11.5276 15.9515 10.2653 16.6897 9.52705L18.7283 7.48853ZM2.18921 15.4338H8.73506C9.7791 15.4338 10.302 16.6961 9.56372 17.4344L7.52515 19.4729C9.05161 20.9023 11.0327 21.6858 13.1343 21.6839C16.9145 21.6805 20.181 19.089 21.0829 15.4901C21.1485 15.2282 21.3818 15.0433 21.6518 15.0433H24.4499C24.816 15.0433 25.0941 15.3757 25.0264 15.7355C23.9698 21.3458 19.044 25.5901 13.1267 25.5901C9.88218 25.5901 6.93574 24.3139 4.76172 22.2363L3.01782 23.9802C2.27959 24.7185 1.01733 24.1956 1.01733 23.1516V16.6057C1.01733 15.9585 1.54199 15.4338 2.18921 15.4338Z"
			fill="currentColor" />
	</g>
	<defs>
		<clipPath id="clip0_39_453">
			<rect width="25" height="25" fill="white" transform="translate(0.626709 0.980713)" />
		</clipPath>
	</defs>
</svg>	