<svg width="25" height="25" viewBox="0 0 25 25" fill="none" xmlns="http://www.w3.org/2000/svg">
	<path d="M8.59668 22.1851C8.59717 22.4922 8.68799 22.793 8.8584 23.0489L9.69287 24.3033C9.83542 24.5177 10.0288 24.6936 10.2557 24.8152C10.4827 24.9369 10.7362 25.0005 10.9937 25.0005H14.0068C14.2643 25.0005 14.5178 24.9369 14.7448 24.8152C14.9717 24.6936 15.1651 24.5177 15.3076 24.3033L16.1421 23.0489C16.3124 22.793 16.4035 22.4925 16.4038 22.1851L16.4058 20.3125H8.59424L8.59668 22.1851ZM3.90625 8.59379C3.90625 10.7603 4.70947 12.7369 6.0332 14.2471C6.83984 15.1675 8.10156 17.0904 8.58252 18.7124C8.58447 18.7251 8.58594 18.7378 8.58789 18.7505H16.4121C16.4141 18.7378 16.4155 18.7256 16.4175 18.7124C16.8984 17.0904 18.1602 15.1675 18.9668 14.2471C20.2905 12.7369 21.0938 10.7603 21.0938 8.59379C21.0938 3.83842 17.2319 -0.0146068 12.4731 4.16298e-05C7.49219 0.0151783 3.90625 4.05131 3.90625 8.59379ZM12.5 4.68754C10.3462 4.68754 8.59375 6.43998 8.59375 8.59379C8.59375 9.02543 8.24414 9.37504 7.8125 9.37504C7.38086 9.37504 7.03125 9.02543 7.03125 8.59379C7.03125 5.57817 9.48438 3.12504 12.5 3.12504C12.9316 3.12504 13.2812 3.47465 13.2812 3.90629C13.2812 4.33793 12.9316 4.68754 12.5 4.68754Z" fill="currentColor"/>
</svg>
