<svg width="20" height="20" viewBox="0 0 20 20" fill="none" xmlns="http://www.w3.org/2000/svg">
	<path
		d="M16.875 0H3.125C2.125 0 1.25 0.875 1.25 1.875V18.125C1.25 19.125 2.125 20 3.125 20H16.875C17.875 20 18.75 19.125 18.75 18.125V1.875C18.75 0.875 17.875 0 16.875 0ZM6.25 17C6.25 17.25 6 17.5 5.75 17.5H4.25C4 17.5 3.75 17.25 3.75 17V15.5C3.75 15.25 4 15 4.25 15H5.75C6 15 6.25 15.25 6.25 15.5V17ZM6.25 12C6.25 12.25 6 12.5 5.75 12.5H4.25C4 12.5 3.75 12.25 3.75 12V10.5C3.75 10.25 4 10 4.25 10H5.75C6 10 6.25 10.25 6.25 10.5V12ZM11.25 17C11.25 17.25 11 17.5 10.75 17.5H9.25C9 17.5 8.75 17.25 8.75 17V15.5C8.75 15.25 9 15 9.25 15H10.75C11 15 11.25 15.25 11.25 15.5V17ZM11.25 12C11.25 12.25 11 12.5 10.75 12.5H9.25C9 12.5 8.75 12.25 8.75 12V10.5C8.75 10.25 9 10 9.25 10H10.75C11 10 11.25 10.25 11.25 10.5V12ZM16.25 17C16.25 17.25 16 17.5 15.75 17.5H14.25C14 17.5 13.75 17.25 13.75 17V10.5C13.75 10.25 14 10 14.25 10H15.75C16 10 16.25 10.25 16.25 10.5V17ZM16.25 7C16.25 7.25 16 7.5 15.75 7.5H4.25C4 7.5 3.75 7.25 3.75 7V3C3.75 2.75 4 2.5 4.25 2.5H15.75C16 2.5 16.25 2.75 16.25 3V7Z"
		fill="currentColor" />
</svg>
	