<svg width="20" height="20" viewBox="0 0 20 20" fill="none" xmlns="http://www.w3.org/2000/svg">
<path d="M17.9625 14.87L10.2867 18.6911C10.1962 18.73 10.0987 18.75 10.0002 18.75C9.90166 18.75 9.80418 18.73 9.71365 18.6911L2.03748 14.87C1.88123 14.7919 1.88123 14.6638 2.03748 14.5853L3.87576 13.672C3.96642 13.6331 4.06403 13.6131 4.16267 13.6131C4.26131 13.6131 4.35892 13.6331 4.44959 13.672L9.71365 16.2892C9.80412 16.3282 9.90163 16.3484 10.0002 16.3484C10.0987 16.3484 10.1962 16.3282 10.2867 16.2892L15.5508 13.672C15.6414 13.6331 15.7389 13.6131 15.8375 13.6131C15.9361 13.6131 16.0336 13.6331 16.1242 13.672L17.9625 14.5872C18.1207 14.6638 18.1207 14.7919 17.9625 14.87ZM17.9625 9.53682L16.1242 8.62159C16.0336 8.58273 15.9361 8.56269 15.8375 8.56269C15.7389 8.56269 15.6414 8.58273 15.5508 8.62159L10.2867 11.2419C10.1961 11.2806 10.0987 11.3005 10.0002 11.3005C9.90169 11.3005 9.80422 11.2806 9.71365 11.2419L4.44959 8.62159C4.35892 8.58274 4.26131 8.56271 4.16267 8.56271C4.06403 8.56271 3.96642 8.58274 3.87576 8.62159L2.03748 9.53682C1.88123 9.61495 1.88123 9.74346 2.03748 9.82237L9.71365 13.6427C9.80418 13.6815 9.90166 13.7016 10.0002 13.7016C10.0987 13.7016 10.1962 13.6815 10.2867 13.6427L17.9625 9.82237C18.1207 9.74346 18.1207 9.61534 17.9625 9.53682ZM2.03748 5.09464L9.71326 8.62159C9.89744 8.69386 10.1021 8.69386 10.2863 8.62159L17.9625 5.09464C18.1187 5.02198 18.1187 4.90362 17.9625 4.83135L10.2863 1.30479C10.1023 1.23174 9.89729 1.23174 9.71326 1.30479L2.03748 4.83135C1.87927 4.90362 1.87927 5.02198 2.03748 5.09464Z" fill="currentColor"/>
</svg>
