<svg width="231" height="48" viewBox="0 0 231 48" fill="none" xmlns="http://www.w3.org/2000/svg">
	<path
		d="M0 5C0 2.23858 2.23858 0 5 0H43C45.7614 0 48 2.23858 48 5V43C48 45.7614 45.7614 48 43 48H5C2.23858 48 0 45.7614 0 43V5Z"
		fill="#4E5BB1" />
	<path
		d="M22.7587 38.1238C15.9653 37.5393 10.4707 32.0547 9.87124 25.2613C9.20688 17.7436 14.4068 11.3098 21.405 10.0111C22.0844 9.88622 22.5889 9.30679 22.5889 8.61246V6C13.2979 6.72929 6 14.5017 6 23.9725C6 33.9278 14.0622 42 24.0225 42C33.9828 42 41.4056 34.5472 42 25.1314H39.4225C38.7232 25.1314 38.1438 25.6459 38.0289 26.3352C36.84 33.4583 30.3513 38.7831 22.7637 38.1288L22.7587 38.1238ZM39.4275 22.8186H41.995C41.4355 13.8574 34.3325 6.67934 25.4161 6V8.60746C25.4161 9.29679 25.9206 9.87623 26.6 10.0011C32.4443 11.0751 37.0448 15.7255 38.0239 21.6048C38.1388 22.2992 38.7232 22.8186 39.4275 22.8186Z"
		fill="#B8BDE0" />
	<path
		d="M25.4161 19.2771V36.2656C24.497 36.3755 23.5529 36.3805 22.5839 36.2656V19.2721C22.5839 18.4879 23.2183 17.8535 24.0025 17.8535C24.7867 17.8535 25.4211 18.4879 25.4211 19.2721L25.4161 19.2771Z"
		fill="#B8BDE0" />
	<path d="M17.7636 38.3685C17.7636 38.3685 17.7935 38.3785 17.8085 38.3885H17.7636V38.3685Z"
		fill="#B8BDE0" />
	<path
		d="M20.5908 22.8186V35.861C19.5918 35.5762 18.6427 35.1616 17.7636 34.6422V22.8186C17.7636 22.0394 18.3979 21.405 19.1772 21.405C19.9564 21.405 20.5908 22.0394 20.5908 22.8186Z"
		fill="#B8BDE0" />
	<path
		d="M15.7705 26.3452V33.1636C14.6066 32.1146 13.6376 30.8458 12.9383 29.4222V26.3452C12.9383 25.561 13.5726 24.9266 14.3569 24.9266C15.1411 24.9266 15.7755 25.561 15.7755 26.3452H15.7705Z"
		fill="#B8BDE0" />
	<path
		d="M30.3114 23.2682V34.6222C29.3873 35.1716 28.3932 35.6012 27.3393 35.8909V23.2682C27.3393 22.489 27.9736 21.8546 28.7529 21.8546H28.8977C29.677 21.8546 30.3114 22.489 30.3114 23.2682Z"
		fill="#B8BDE0" />
	<path
		d="M35.0617 26.3452V29.5121C34.3624 30.9208 33.3984 32.1746 32.2345 33.2085V26.3452C32.2345 25.566 32.8689 24.9316 33.6481 24.9316C34.4274 24.9316 35.0617 25.566 35.0617 26.3452Z"
		fill="#B8BDE0" />
	<path d="M68.292 34.5V17.084H63.14V14.9H76.132V17.084H70.98V34.5H68.292Z" fill="#B8BDE0" />
	<path
		d="M91.2417 34.92C89.9351 34.92 88.7591 34.668 87.7137 34.164C86.6871 33.66 85.8751 32.8947 85.2777 31.868C84.6804 30.8227 84.3817 29.4973 84.3817 27.892V14.9H87.0697V27.892C87.0697 29.684 87.4524 30.9533 88.2177 31.7C88.9831 32.4467 89.9911 32.82 91.2417 32.82C92.5111 32.82 93.5284 32.4467 94.2937 31.7C95.059 30.9533 95.4417 29.684 95.4417 27.892V14.9H98.1297V27.892C98.1297 29.4973 97.8217 30.8227 97.2057 31.868C96.6084 32.8947 95.7871 33.66 94.7417 34.164C93.6964 34.668 92.5297 34.92 91.2417 34.92Z"
		fill="#B8BDE0" />
	<path d="M111.539 34.5V17.084H106.387V14.9H119.379V17.084H114.227V34.5H111.539Z" fill="#B8BDE0" />
	<path
		d="M134.489 34.92C133.182 34.92 132.006 34.668 130.961 34.164C129.934 33.66 129.122 32.8947 128.525 31.868C127.927 30.8227 127.629 29.4973 127.629 27.892V14.9H130.317V27.892C130.317 29.684 130.699 30.9533 131.465 31.7C132.23 32.4467 133.238 32.82 134.489 32.82C135.758 32.82 136.775 32.4467 137.541 31.7C138.306 30.9533 138.689 29.684 138.689 27.892V14.9H141.377V27.892C141.377 29.4973 141.069 30.8227 140.453 31.868C139.855 32.8947 139.034 33.66 137.989 34.164C136.943 34.668 135.777 34.92 134.489 34.92Z"
		fill="#B8BDE0" />
	<path
		d="M152.294 34.5V14.9H157.95C159.443 14.9 160.684 15.1613 161.674 15.684C162.663 16.2067 163.4 16.916 163.886 17.812C164.39 18.6893 164.642 19.6787 164.642 20.78C164.642 21.9747 164.352 23.0293 163.774 23.944C163.214 24.84 162.364 25.512 161.226 25.96C161.487 26.1467 161.692 26.3613 161.842 26.604C162.01 26.828 162.15 27.052 162.262 27.276L165.762 34.5H162.822L159.714 27.724C159.49 27.2387 159.238 26.912 158.958 26.744C158.678 26.576 158.351 26.492 157.978 26.492H154.982V34.5H152.294ZM154.982 24.308H157.95C159.014 24.308 159.835 24.1307 160.414 23.776C161.011 23.4213 161.431 22.964 161.674 22.404C161.916 21.844 162.038 21.2747 162.038 20.696C162.038 20.1173 161.916 19.5573 161.674 19.016C161.431 18.456 161.011 17.9987 160.414 17.644C159.835 17.2707 159.014 17.084 157.95 17.084H154.982V24.308Z"
		fill="#B8BDE0" />
	<path d="M175.011 34.5V14.9H177.699V34.5H175.011Z" fill="#B8BDE0" />
	<path
		d="M195.476 34.92C194.169 34.92 192.993 34.668 191.948 34.164C190.921 33.66 190.109 32.8947 189.512 31.868C188.915 30.8227 188.616 29.4973 188.616 27.892V14.9H191.304V27.892C191.304 29.684 191.687 30.9533 192.452 31.7C193.217 32.4467 194.225 32.82 195.476 32.82C196.745 32.82 197.763 32.4467 198.528 31.7C199.293 30.9533 199.676 29.684 199.676 27.892V14.9H202.364V27.892C202.364 29.4973 202.056 30.8227 201.44 31.868C200.843 32.8947 200.021 33.66 198.976 34.164C197.931 34.668 196.764 34.92 195.476 34.92Z"
		fill="#B8BDE0" />
	<path
		d="M213.281 34.5V14.9H217.089L221.933 28.144L226.777 14.9H230.585V34.5H227.897V18.26L222.969 31.7H220.897L215.969 18.26V34.5H213.281Z"
		fill="#B8BDE0" />
</svg>	